# AST/ASF file generated using VICON BodyLanguage
# -----------------------------------------------
:version 1.10
:name VICON
:units
  mass 1.0
  length 0.45
  angle deg
:documentation
   .ast/.asf automatically generated from VICON data using
   VICON BodyBuilder and BodyLanguage model FoxedUp or BRILLIANT.MOD
:root
   order TX TY TZ RX RY RZ
   axis XYZ
   position 0 0 0  
   orientation 0 0 0 
:bonedata
  begin
     id 1 
     name lhipjoint
     direction 0.596438 -0.722117 0.35044 
     length 2.43043 
     axis 0 0 0  XYZ
  end
  begin
     id 2 
     name lfemur
     direction 0.34202 -0.939693 0  
     length 7.0339  
     axis 0 0 20  XYZ
    dof rx ry rz
    limits (-160.0 20.0)
           (-70.0 70.0)
           (-60.0 70.0)
  end
  begin
     id 3 
     name ltibia
     direction 0.34202 -0.939693 0   
     length 7.56602   
     axis 0 0 20   XYZ
    dof rx
    limits (-10.0 170.0)
  end
  begin
     id 4 
     name lfoot
     direction 0.0985677 -0.270812 0.957572   
     length 1.85172   
     axis -90 7.62852e-016 20   XYZ
    dof rx rz
    limits (-45.0 90.0)
           (-70.0 20.0)
  end
  begin
     id 5 
     name ltoes
     direction 1.53534e-011 -4.21843e-011 1   
     length 0.929904   
     axis -90 7.62852e-016 20   XYZ
    dof rx
    limits (-90.0 20.0)
  end
  begin
     id 6 
     name rhipjoint
     direction -0.585088 -0.729594 0.354068   
     length 2.40552  
     axis 0 0 0  XYZ 
  end
  begin
     id 7 
     name rfemur
     direction -0.34202 -0.939693 0   
     length 7.12573   
     axis 0 0 -20   XYZ
    dof rx ry rz
    limits (-160.0 20.0)
           (-70.0 70.0)
           (-70.0 60.0)
  end
  begin
     id 8 
     name rtibia
     direction -0.34202 -0.939693 0   
     length 7.35777   
     axis 0 0 -20   XYZ
    dof rx
    limits (-10.0 170.0)
 end
 begin
     id 9 
     name rfoot
     direction -0.120907 -0.33219 0.935431   
     length 2.0994  
     axis -90 -7.62852e-016 -20   XYZ
    dof rx rz
    limits (-45.0 90.0)
           (-20.0 70.0)
  end
  begin
     id 10 
     name rtoes
     direction -1.53577e-011 -4.21787e-011 1   
     length 1.04244   
     axis -90 -7.62852e-016 -20   XYZ
    dof rx
    limits (-90.0 20.0)
  end
  begin
     id 11 
     name lowerback
     direction 0.00268363 0.993603 -0.112896   
     length 2.15839   
     axis 0 0 0   XYZ
    dof rx ry rz
    limits (-20.0 45.0)
           (-30.0 30.0)
           (-30.0 30.0)
  end
  begin
     id 12 
     name upperback
     direction 0.0272563 0.999411 -0.0208618   
     length 2.16443   
     axis 0 0 0   XYZ
    dof rx ry rz
    limits (-20.0 45.0)
           (-30.0 30.0)
           (-30.0 30.0)
  end
  begin
     id 13 
     name thorax
     direction 0.0254655 0.999174 0.0316806   
     length 2.19003   
     axis 0 0 0   XYZ
    dof rx ry rz
    limits (-20.0 45.0)
           (-30.0 30.0)
           (-30.0 30.0)
  end
  begin
     id 14 
     name lowerneck
     direction -0.0102178 0.988048 0.15381   
     length 1.61507   
     axis 0 0 0   XYZ
    dof rx ry rz
    limits (-20.0 45.0)
           (-30.0 30.0)
           (-30.0 30.0)
  end
  begin
     id 15 
     name upperneck
     direction -0.0061965 0.994088 -0.108398   
     length 1.64042   
     axis 0 0 0   XYZ
    dof rx ry rz
    limits (-20.0 45.0)
           (-30.0 30.0)
           (-30.0 30.0)
  end
  begin
     id 16
     name head
     direction -0.00151929 0.998591 -0.0530385  
     length 1.64343  
     axis 0 0 0   XYZ
    dof rx ry rz
    limits (-20.0 45.0)
           (-30.0 30.0)
           (-30.0 30.0)
  end
  begin
     id 17 
     name lclavicle
     direction 0.948974 0.284245 -0.136574  
     length 3.3483  
     axis 0 0 0   XYZ
    dof ry rz
    limits (-20.0 10.0)
           (0.0 20.0)
  end
  begin
     id 18 
     name lhumerus
     direction 1 -4.48961e-011 1.68576e-027   
     length 4.93485   
     axis -180 -30 -90   XYZ
    dof rx ry rz
    limits (-60.0 90.0)
           (-90.0 90.0)
           (-90.0 90.0)
  end
  begin
     id 19
     name lradius
     direction 1 -4.48965e-011 -2.46405e-027   
     length 3.41719   
     axis -180 -30 -90   XYZ
    dof rx
    limits (-10.0 170.0)
  end
  begin
     id 20
     name lwrist
     direction 1 -4.48968e-011 -8.00486e-028   
     length 1.7086   
     axis 3.27501e-015 90 90   XYZ
    dof ry
    limits (-180.0 0.0)
 end
  begin
     id 21 
     name lhand
     direction 1 -4.48977e-011 -1.60161e-027   
     length 0.6241   
     axis 1.02148e-015 90 90   XYZ
    dof rx rz
    limits (-90.0 90.0)
           (-45.0 45.0)
  end
  begin
     id 22 
     name lfingers
     direction 1 -4.49049e-011 -3.21275e-027   
     length 0.503166   
     axis 2.04295e-015 90 90   XYZ
    dof rx
    limits (0.0 90.0)
  end
  begin
     id 23
     name lthumb
     direction 0.707107 -6.34975e-011 0.707107   
     length 0.722448   
     axis -90 45 -1.62303e-014   XYZ
    dof rx rz
    limits (-45.0 45.0)
           (-45.0 45.0)
  end
  begin
     id 24 
     name rclavicle
     direction -0.904485 0.355099 -0.236246   
     length 3.18329  
     axis 0 0 0   XYZ 
    dof ry rz
    limits (-10.0 20.0)
           (-20.0 0.0)
  end
  begin
     id 25 
     name rhumerus
     direction -1 -4.48953e-011 1.32816e-027  
     length 5.22034   
     axis -180 30 90   XYZ
    dof rx ry rz
    limits (-90.0 60.0)
           (-90.0 90.0)
           (-90.0 90.0)
  end
  begin
     id 26 
     name rradius
     direction -1 -4.48965e-011 -3.93727e-027   
     length 3.41809   
     axis -180 30 90   XYZ
    dof rx
    limits (-10.0 170.0)
  end
  begin
     id 27 
     name rwrist
     direction -1 -4.48962e-011 -8.003e-028   
     length 1.70904   
     axis 3.27501e-015 -90 -90   XYZ
    dof ry
    limits (-180.0 0.0)
  end
  begin
     id 28
     name rhand
     direction -1 -4.49008e-011 -1.60365e-027   
     length 0.77534   
     axis 1.02148e-015 -90 -90   XYZ
    dof rx rz
    limits (-90.0 90.0)
           (-45.0 45.0)
  end
  begin
     id 29
     name rfingers
     direction -1 -4.49001e-011 -3.2064e-027   
     length 0.625099   
     axis 2.04295e-015 -90 -90   XYZ
    dof rx
    limits (0.0 90.0)
  end
  begin
     id 30
     name rthumb
     direction -0.707107 -6.34989e-011 0.707107   
     length 0.897521   
     axis -90 -45 1.62303e-014   XYZ
    dof rx rz
    limits (-45.0 45.0)
           (-45.0 45.0)
  end
:hierarchy
  begin
    root lhipjoint rhipjoint lowerback
    lhipjoint lfemur
    lfemur ltibia
    ltibia lfoot
    lfoot ltoes
    rhipjoint rfemur
    rfemur rtibia
    rtibia rfoot
    rfoot rtoes
    lowerback upperback
    upperback thorax
    thorax lowerneck lclavicle rclavicle
    lowerneck upperneck
    upperneck head
    lclavicle lhumerus
    lhumerus lradius
    lradius lwrist
    lwrist lhand lthumb
    lhand lfingers
    rclavicle rhumerus
    rhumerus rradius
    rradius rwrist
    rwrist rhand rthumb
    rhand rfingers
  end

#!OML:ASF \\sashay\E\Suitcase\Project 1\Capture day 1\Session 1\Male1.ASF
:FULLY-SPECIFIED
:DEGREES
424
root 0.01227 17.4095 -33.6579 8.63846 3.41961 -2.60514
lowerback 6.70357 1.16636 2.30133
upperback 1.94487 1.8391 5.75741
thorax -1.86849 0.915094 4.52234
lowerneck -16.8321 -0.689807 -7.81398
upperneck 15.5123 2.50578 -7.7033
head 7.65201 -0.021692 -0.994195
rclavicle -2.74323e-014 -3.97569e-014
rhumerus -33.8855 -36.2952 -56.9547
rradius 9.20538
rwrist 9.16595
rhand -12.6328 14.6636
rfingers 7.12502
rthumb 13.4471 -14.8824
lclavicle -2.74323e-014 -3.97569e-014
lhumerus -40.0715 -2.20766 90.077
lradius 39.4984
lwrist -3.23724
lhand 0.338369 42.0673
lfingers 7.12502
lthumb 25.9144 70.3211
rfemur -1.83214 3.62703 28.8722
rtibia 16.0782
rfoot -21.3023 -16.4446
rtoes 16.0877
lfemur -36.8424 -2.58242 -16.8731
ltibia 35.7412
lfoot -13.2986 -1.71407
ltoes -3.92292
425
root 0.0210011 17.4163 -33.5918 8.852 3.41192 -2.53452
lowerback 6.50933 1.16392 2.35666
upperback 1.8766 1.82903 5.63096
thorax -1.82431 0.910011 4.36125
lowerneck -16.7126 -0.665572 -7.76565
upperneck 15.4092 2.4908 -7.64439
head 7.59495 -0.0115027 -0.982509
rclavicle -1.15295e-014 -1.59028e-014
rhumerus -33.7526 -36.3107 -57.0973
rradius 8.99091
rwrist 8.91501
rhand -12.5789 14.1076
rfingers 7.12502
rthumb 13.4991 -15.4349
lclavicle -1.15295e-014 -1.59028e-014
lhumerus -40.3873 -1.76492 89.7826
lradius 39.5073
lwrist -3.43435
lhand 0.161429 42.1186
lfingers 7.12502
lthumb 25.745 70.3971
rfemur -1.41636 3.44119 28.7457
rtibia 15.3126
rfoot -21.0559 -16.2884
rtoes 15.9805
lfemur -37.1934 -2.69923 -17.096
ltibia 34.5126
lfoot -13.0222 -1.78667
ltoes -3.50194
426
root 0.0148032 17.4187 -33.5314 8.73331 3.29287 -2.97746
lowerback 6.62994 1.34621 2.62514
upperback 2.01692 2.08984 5.7356
thorax -1.75611 1.03909 4.29706
lowerneck -16.871 -0.793501 -7.73782
upperneck 15.3238 2.31615 -7.62226
head 7.59301 -0.0895671 -0.999758
rclavicle 6.75868e-015 6.36111e-015
rhumerus -34.2238 -36.5393 -56.7543
rradius 9.83609
rwrist 8.3953
rhand -12.3785 13.1397
rfingers 7.12502
rthumb 13.6922 -16.3899
lclavicle 6.75868e-015 6.36111e-015
lhumerus -40.1352 -1.79994 89.7044
lradius 38.9501
lwrist -3.5545
lhand 0.176385 42.9037
lfingers 7.12502
lthumb 25.7593 71.18
rfemur -0.67908 3.59587 29.2641
rtibia 14.4651
rfoot -20.7307 -16.3371
rtoes 15.5243
lfemur -37.2876 -2.52207 -16.7429
ltibia 33.3235
lfoot -12.7833 -2.00683
ltoes -3.02223
427
root 0.0158401 17.426 -33.4651 8.98749 3.41383 -2.66797
lowerback 6.47603 1.31056 2.34829
upperback 1.93922 2.01808 5.63361
thorax -1.75258 1.00422 4.35444
lowerneck -16.8864 -0.814159 -7.93058
upperneck 15.2494 2.30536 -7.48697
head 7.56757 -0.0892183 -0.925263
rclavicle 1.15295e-014 -1.27222e-014
rhumerus -34.0233 -36.5506 -56.8818
rradius 9.63177
rwrist 8.50136
rhand -12.7416 12.8092
rfingers 7.12502
rthumb 13.3423 -16.7437
lclavicle 1.15295e-014 -1.27222e-014
lhumerus -40.2001 -1.35347 89.4457
lradius 38.6568
lwrist -3.62267
lhand 0.263322 41.4034
lfingers 7.12502
lthumb 25.8426 69.6677
rfemur -0.192999 3.60091 28.9684
rtibia 13.5196
rfoot -20.4431 -16.4717
rtoes 14.788
lfemur -37.7011 -2.69178 -17.2058
ltibia 32.1803
lfoot -12.6443 -2.25186
ltoes -2.64255
428
root 0.0230766 17.4243 -33.399 9.07489 3.48053 -2.76158
lowerback 6.32081 1.14007 2.74787
upperback 2.06246 1.79447 5.47497
thorax -1.50774 0.891254 3.98396
lowerneck -17.1332 -0.704941 -8.05861
upperneck 15.0804 2.44799 -7.21717
head 7.5472 0.000607194 -0.799594
rclavicle -1.51076e-014 -5.88403e-014
rhumerus -32.9472 -36.5619 -57.8049
rradius 8.81213
rwrist 8.39542
rhand -12.8806 13.732
rfingers 7.12502
rthumb 13.2083 -15.8295
lclavicle -1.51076e-014 -5.88403e-014
lhumerus -40.1828 -0.66839 88.8227
lradius 38.4601
lwrist -3.67023
lhand 0.11086 41.3405
lfingers 7.12502
lthumb 25.6966 69.6259
rfemur 0.456683 3.36244 29.0554
rtibia 12.4691
rfoot -19.9876 -16.3057
rtoes 13.8241
lfemur -38.0305 -2.79762 -17.2333
ltibia 31.124
lfoot -12.5544 -2.46895
ltoes -2.62897
429
root 0.0194464 17.4197 -33.3365 9.01313 3.59513 -3.1062
lowerback 6.60414 1.22657 2.92471
upperback 1.93605 1.95033 5.5975
thorax -1.80262 0.968746 3.99396
lowerneck -16.8743 -0.76224 -8.07936
upperneck 15.0371 2.33741 -7.20196
head 7.48748 -0.0431305 -0.802256
rclavicle 7.95139e-015 -3.18055e-015
rhumerus -33.5054 -36.5668 -57.2763
rradius 9.06411
rwrist 8.42092
rhand -12.7743 13.2844
rfingers 7.12502
rthumb 13.3108 -16.2705
lclavicle 7.95139e-015 -3.18055e-015
lhumerus -40.4996 -0.387797 88.7038
lradius 38.2711
lwrist -4.0381
lhand 0.282626 41.5834
lfingers 7.12502
lthumb 25.8611 69.845
rfemur 1.17987 3.29256 29.4931
rtibia 11.5461
rfoot -19.5972 -16.3454
rtoes 13.1329
lfemur -38.2372 -2.98297 -16.9091
ltibia 30.0815
lfoot -12.4726 -2.597
ltoes -3.21488
430
root 0.0219067 17.4226 -33.2651 9.26254 3.53819 -3.07191
lowerback 6.23254 1.34036 2.72545
upperback 1.99703 2.0617 5.59954
thorax -1.54494 1.02524 4.1077
lowerneck -16.9491 -0.792361 -8.03384
upperneck 14.9331 2.29239 -7.24325
head 7.46683 -0.061592 -0.827836
rclavicle -1.19271e-015 -1.43125e-014
rhumerus -33.4654 -36.7205 -57.1372
rradius 9.12829
rwrist 8.42928
rhand -12.5251 14.0436
rfingers 7.12502
rthumb 13.551 -15.4954
lclavicle -1.19271e-015 -1.43125e-014
lhumerus -40.6493 -0.244654 88.6338
lradius 38.3693
lwrist -3.98287
lhand 0.215897 41.8441
lfingers 7.12502
lthumb 25.7971 70.115
rfemur 1.78443 3.35624 29.4394
rtibia 10.371
rfoot -19.0816 -16.3734
rtoes 12.6301
lfemur -38.6848 -3.05688 -17.0608
ltibia 29.1359
lfoot -12.5307 -2.683
ltoes -4.21552
431
root 0.0250713 17.4191 -33.2015 9.2962 3.61053 -3.03662
lowerback 6.26222 1.38143 2.54008
upperback 1.94518 2.11151 5.63384
thorax -1.62579 1.05069 4.24325
lowerneck -16.5853 -0.77463 -8.01379
upperneck 14.7417 2.26466 -7.32358
head 7.34194 -0.0619775 -0.857189
rclavicle 1.59028e-015 -2.06736e-014
rhumerus -33.2986 -36.7873 -57.0548
rradius 8.94812
rwrist 8.24115
rhand -12.8973 13.2031
rfingers 7.12502
rthumb 13.1922 -16.3595
lclavicle 1.59028e-015 -2.06736e-014
lhumerus -40.6177 0.158797 88.5243
lradius 37.7767
lwrist -3.96439
lhand 0.0648313 41.8907
lfingers 7.12502
lthumb 25.6525 70.1826
rfemur 2.6578 3.12366 29.4126
rtibia 9.03618
rfoot -18.4601 -16.2982
rtoes 12.2327
lfemur -38.9753 -3.17228 -17.2392
ltibia 28.2685
lfoot -12.6102 -2.84526
ltoes -5.28711
432
root 0.0341311 17.4201 -33.13 9.42469 3.69128 -3.12991
lowerback 6.23113 1.42909 2.67659
upperback 1.86146 2.18676 5.62655
thorax -1.69387 1.08833 4.15228
lowerneck -16.5036 -0.797949 -8.0544
upperneck 14.7124 2.23098 -7.32453
head 7.31811 -0.0766848 -0.854172
rclavicle -5.1684e-015 1.27222e-014
rhumerus -33.7062 -36.7601 -56.6746
rradius 9.32681
rwrist 8.08786
rhand -12.145 13.6186
rfingers 7.12502
rthumb 13.9173 -15.8957
lclavicle -5.1684e-015 1.27222e-014
lhumerus -41.0069 0.199207 88.4486
lradius 37.8453
lwrist -3.80533
lhand 0.0835189 41.9716
lfingers 7.12502
lthumb 25.6704 70.2608
rfemur 3.59221 2.92083 29.496
rtibia 7.41665
rfoot -17.6905 -16.2463
rtoes 11.7856
lfemur -39.329 -3.32599 -17.2698
ltibia 27.437
lfoot -12.7222 -2.92131
ltoes -6.2514
